<svg id="visual" viewBox="0 0 1920 595" width="1920" height="595" xmlns="http://www.w3.org/2000/svg" xmlns:xlink="http://www.w3.org/1999/xlink" version="1.1"><rect x="0" y="0" width="1920" height="595" fill="#001220"></rect><defs><linearGradient id="grad1_0" x1="69%" y1="100%" x2="100%" y2="0%"><stop offset="-14.537815126050425%" stop-color="#001220" stop-opacity="1"></stop><stop offset="114.53781512605043%" stop-color="#001220" stop-opacity="1"></stop></linearGradient></defs><defs><linearGradient id="grad2_0" x1="0%" y1="100%" x2="31%" y2="0%"><stop offset="-14.537815126050425%" stop-color="#001220" stop-opacity="1"></stop><stop offset="114.53781512605043%" stop-color="#001220" stop-opacity="1"></stop></linearGradient></defs><g transform="translate(1920, 595)"><path d="M-446.2 0C-444.5 -62.6 -442.7 -125.3 -412.3 -170.8C-381.9 -216.3 -322.8 -244.7 -277.2 -277.2C-231.6 -309.7 -199.3 -346.2 -155.4 -375.1C-111.4 -404 -55.7 -425.1 0 -446.2L0 0Z" fill="#FBAE3C"></path></g><g transform="translate(0, 0)"><path d="M446.3 0C447.6 66.4 449 132.8 412.3 170.8C375.5 208.7 300.7 218.2 258.1 258.1C215.5 298 205.2 368.2 167.6 404.7C130 441.1 65 443.7 0 446.3L0 0Z" fill="#FBAE3C"></path></g></svg>